<?xml version="1.0" encoding="UTF-8" standalone="no"?>
<!DOCTYPE svg PUBLIC "-//W3C//DTD SVG 1.1//EN"
 "http://www.w3.org/Graphics/SVG/1.1/DTD/svg11.dtd">
<!-- Generated by graphviz version 2.40.1 (20161225.0304)
 -->
<!-- Title: Color Pages: 1 -->
<svg width="214pt" height="98pt"
 viewBox="0.00 0.00 214.29 98.40" xmlns="http://www.w3.org/2000/svg" xmlns:xlink="http://www.w3.org/1999/xlink">
<g id="graph0" class="graph" transform="scale(1 1) rotate(0) translate(4 94.3956)">
<title>Color</title>
<polygon fill="#ffffff" stroke="transparent" points="-4,4 -4,-94.3956 210.293,-94.3956 210.293,4 -4,4"/>
<!-- Red -->
<g id="node1" class="node">
<title>Red</title>
<ellipse fill="none" stroke="#000000" cx="29" cy="-28.6978" rx="24.8692" ry="24.8692"/>
<ellipse fill="none" stroke="#000000" cx="29" cy="-28.6978" rx="28.897" ry="28.897"/>
<text text-anchor="middle" x="29" y="-24.9978" font-family="Times,serif" font-size="14.00" fill="#000000">Red</text>
</g>
<!-- Red&#45;&gt;Red -->
<g id="edge2" class="edge">
<title>Red&#45;&gt;Red</title>
<path fill="none" stroke="#000000" d="M15.3418,-54.1559C14.041,-65.5453 18.5938,-75.3956 29,-75.3956 35.9917,-75.3956 40.341,-70.949 42.048,-64.5766"/>
<polygon fill="#000000" stroke="#000000" points="45.5675,-64.3434 42.6582,-54.1559 38.5795,-63.9341 45.5675,-64.3434"/>
<text text-anchor="middle" x="29" y="-79.1956" font-family="Times,serif" font-size="14.00" fill="#000000">in == 2&#39;h0</text>
</g>
<!-- Blue -->
<g id="node2" class="node">
<title>Blue</title>
<ellipse fill="none" stroke="#000000" cx="178.9954" cy="-28.6978" rx="27.0966" ry="27.0966"/>
<text text-anchor="middle" x="178.9954" y="-24.9978" font-family="Times,serif" font-size="14.00" fill="#000000">Blue</text>
</g>
<!-- Red&#45;&gt;Blue -->
<g id="edge3" class="edge">
<title>Red&#45;&gt;Blue</title>
<path fill="none" stroke="#000000" d="M57.9206,-28.6978C81.714,-28.6978 115.6094,-28.6978 141.4877,-28.6978"/>
<polygon fill="#000000" stroke="#000000" points="141.6801,-32.1979 151.6801,-28.6978 141.6801,-25.1979 141.6801,-32.1979"/>
<text text-anchor="middle" x="104.6978" y="-32.4978" font-family="Times,serif" font-size="14.00" fill="#000000">in == 2&#39;h1</text>
</g>
<!-- Blue&#45;&gt;Red -->
<g id="edge1" class="edge">
<title>Blue&#45;&gt;Red</title>
<path fill="none" stroke="#000000" d="M154.1087,-16.8631C147.61,-14.3179 140.5132,-12.0023 133.6978,-10.6978 108.3796,-5.8517 101.0407,-5.9826 75.6978,-10.6978 72.0674,-11.3733 68.3554,-12.3206 64.6889,-13.4308"/>
<polygon fill="#000000" stroke="#000000" points="63.5116,-10.1343 55.1771,-16.6755 65.7716,-16.7594 63.5116,-10.1343"/>
<text text-anchor="middle" x="104.6978" y="-14.4978" font-family="Times,serif" font-size="14.00" fill="#000000">in == 2&#39;h1</text>
</g>
</g>
</svg>
